<mxfile host="app.diagrams.net" modified="2020-10-27T03:20:38.633Z" agent="5.0 (Macintosh; Intel Mac OS X 10_15_7) AppleWebKit/537.36 (KHTML, like Gecko) Chrome/86.0.4240.111 Safari/537.36" etag="YtzepqQeIBQSKQ29LCzo" version="13.8.3" type="github">
  <diagram id="h08Si7Dvkewj9XprqCNm" name="Page-1">
    <mxGraphModel dx="1249" dy="703" grid="1" gridSize="10" guides="1" tooltips="1" connect="1" arrows="1" fold="1" page="1" pageScale="1" pageWidth="827" pageHeight="1169" math="0" shadow="0">
      <root>
        <mxCell id="0" />
        <mxCell id="1" parent="0" />
        <mxCell id="LU435iPKPv_Nq7EKmkuQ-1" value="atlas_data_source" style="rounded=0;whiteSpace=wrap;html=1;" vertex="1" parent="1">
          <mxGeometry x="120" y="530" width="120" height="60" as="geometry" />
        </mxCell>
        <mxCell id="LU435iPKPv_Nq7EKmkuQ-2" value="atlas_data_store" style="rounded=0;whiteSpace=wrap;html=1;" vertex="1" parent="1">
          <mxGeometry x="310" y="530" width="120" height="60" as="geometry" />
        </mxCell>
        <mxCell id="LU435iPKPv_Nq7EKmkuQ-3" value="atlas_sink_strategy" style="rounded=0;whiteSpace=wrap;html=1;" vertex="1" parent="1">
          <mxGeometry x="220" y="390" width="120" height="60" as="geometry" />
        </mxCell>
        <mxCell id="LU435iPKPv_Nq7EKmkuQ-4" value="" style="endArrow=classic;html=1;exitX=0.5;exitY=0;exitDx=0;exitDy=0;entryX=0.25;entryY=1;entryDx=0;entryDy=0;" edge="1" parent="1" source="LU435iPKPv_Nq7EKmkuQ-1" target="LU435iPKPv_Nq7EKmkuQ-3">
          <mxGeometry width="50" height="50" relative="1" as="geometry">
            <mxPoint x="400" y="440" as="sourcePoint" />
            <mxPoint x="450" y="390" as="targetPoint" />
          </mxGeometry>
        </mxCell>
        <mxCell id="LU435iPKPv_Nq7EKmkuQ-5" value="" style="endArrow=classic;html=1;exitX=0.5;exitY=0;exitDx=0;exitDy=0;entryX=0.75;entryY=1;entryDx=0;entryDy=0;" edge="1" parent="1" source="LU435iPKPv_Nq7EKmkuQ-2" target="LU435iPKPv_Nq7EKmkuQ-3">
          <mxGeometry width="50" height="50" relative="1" as="geometry">
            <mxPoint x="190" y="540" as="sourcePoint" />
            <mxPoint x="260" y="460" as="targetPoint" />
          </mxGeometry>
        </mxCell>
        <mxCell id="LU435iPKPv_Nq7EKmkuQ-6" value="atlas_datamodel" style="rounded=0;whiteSpace=wrap;html=1;" vertex="1" parent="1">
          <mxGeometry x="220" y="280" width="120" height="60" as="geometry" />
        </mxCell>
        <mxCell id="LU435iPKPv_Nq7EKmkuQ-7" value="" style="endArrow=classic;html=1;exitX=0.5;exitY=0;exitDx=0;exitDy=0;entryX=0.5;entryY=1;entryDx=0;entryDy=0;" edge="1" parent="1" source="LU435iPKPv_Nq7EKmkuQ-3" target="LU435iPKPv_Nq7EKmkuQ-6">
          <mxGeometry width="50" height="50" relative="1" as="geometry">
            <mxPoint x="190" y="540" as="sourcePoint" />
            <mxPoint x="260" y="460" as="targetPoint" />
          </mxGeometry>
        </mxCell>
        <mxCell id="LU435iPKPv_Nq7EKmkuQ-8" value="atlas_feature" style="rounded=0;whiteSpace=wrap;html=1;" vertex="1" parent="1">
          <mxGeometry x="220" y="180" width="120" height="60" as="geometry" />
        </mxCell>
        <mxCell id="LU435iPKPv_Nq7EKmkuQ-9" value="atlas_risk_strategy" style="rounded=0;whiteSpace=wrap;html=1;" vertex="1" parent="1">
          <mxGeometry x="220" y="70" width="120" height="60" as="geometry" />
        </mxCell>
        <mxCell id="LU435iPKPv_Nq7EKmkuQ-11" value="" style="endArrow=classic;html=1;exitX=0.5;exitY=0;exitDx=0;exitDy=0;entryX=0.5;entryY=1;entryDx=0;entryDy=0;" edge="1" parent="1" source="LU435iPKPv_Nq7EKmkuQ-6" target="LU435iPKPv_Nq7EKmkuQ-8">
          <mxGeometry width="50" height="50" relative="1" as="geometry">
            <mxPoint x="290" y="400" as="sourcePoint" />
            <mxPoint x="290" y="350" as="targetPoint" />
          </mxGeometry>
        </mxCell>
        <mxCell id="LU435iPKPv_Nq7EKmkuQ-12" value="" style="endArrow=classic;html=1;entryX=0.5;entryY=1;entryDx=0;entryDy=0;" edge="1" parent="1" target="LU435iPKPv_Nq7EKmkuQ-9">
          <mxGeometry width="50" height="50" relative="1" as="geometry">
            <mxPoint x="280" y="180" as="sourcePoint" />
            <mxPoint x="290" y="250" as="targetPoint" />
          </mxGeometry>
        </mxCell>
      </root>
    </mxGraphModel>
  </diagram>
</mxfile>
